<mxfile host="app.diagrams.net" modified="2024-02-14T07:02:09.186Z" agent="Mozilla/5.0 (Windows NT 10.0; Win64; x64; rv:122.0) Gecko/20100101 Firefox/122.0" version="23.1.4" etag="Jho1z6W0VOc8Lq5OJu_b" type="github">
  <diagram name="Page-1" id="lQAPFcKa6WvEtqg0P1gQ">
    <mxGraphModel>
      <root>
        <mxCell id="0" />
        <mxCell id="1" parent="0" />
      </root>
    </mxGraphModel>
  </diagram>
</mxfile>
